<svg xmlns="http://www.w3.org/2000/svg" viewBox="0 0 180 180" fill="none" role="img" aria-label="BranchBrew">
  <rect width="180" height="180" rx="40" fill="#9A5A1E"/>
  <g transform="translate(28 34)" stroke="#F7F7F4" stroke-width="10" stroke-linecap="round" stroke-linejoin="round">
    <path d="M34 8V18a20 20 0 0 0 20 20"/>
    <path d="M82 8V18a20 20 0 0 1-20 20"/>
    <path d="M102 48H12a12 12 0 0 0-12 12v32a32 32 0 0 0 32 32h40a32 32 0 0 0 32-32V60a12 12 0 0 0-12-12Z"/>
    <path d="M102 68h10a16 16 0 0 1 0 32h-10"/>
  </g>
</svg>
