<svg xmlns="http://www.w3.org/2000/svg" viewBox="0 0 32 32" fill="none" role="img" aria-label="BranchBrew">
  <rect width="32" height="32" rx="8" fill="#9A5A1E"/>
  <g transform="translate(5 6)" stroke="#F7F7F4" stroke-width="1.75" stroke-linecap="round" stroke-linejoin="round">
    <path d="M6 1.5V3a3.5 3.5 0 0 0 3.5 3.5"/>
    <path d="M14.5 1.5V3a3.5 3.5 0 0 1-3.5 3.5"/>
    <path d="M18 8.5H2A2 2 0 0 0 0 10.5v5.5a5.5 5.5 0 0 0 5.5 5.5h7A5.5 5.5 0 0 0 18 16V10.5a2 2 0 0 0-2-2Z"/>
    <path d="M18 12h1.75a2.75 2.75 0 0 1 0 5.5H18"/>
  </g>
</svg>
